<svg width="78" height="90" viewBox="0 0 78 90" fill="none" xmlns="http://www.w3.org/2000/svg">
<path d="M33.2043 0.28426C32.5313 0.703056 32.2321 1.64535 32.1424 3.79915C32.0377 5.938 32.2471 7.47857 32.9351 9.91656C33.2193 10.8888 33.4437 11.7114 33.4437 11.7413C33.4437 11.7862 30.6168 11.8311 27.1617 11.846L20.8798 11.8909L20.4759 12.3097L20.0571 12.7135L19.9824 45.1403C19.9225 69.3108 19.8627 77.6717 19.7281 78.0307C19.3841 79.0029 18.711 80.0649 18.1426 80.5584C16.5572 81.9046 14.0444 81.8298 12.5936 80.3939C11.6214 79.4217 11.3821 78.8234 11.3821 77.4025C11.3821 76.2658 11.412 76.1611 11.9654 75.2487C13.0124 73.5735 12.8628 71.8983 11.5466 70.4774C9.19837 67.9198 5.04033 68.8172 3.35019 72.2573C2.61729 73.768 2.42285 74.8149 2.42285 77.1782C2.43781 79.661 2.70703 80.9772 3.60445 82.8169C5.56382 86.7955 9.10863 89.3083 13.6256 89.9066C16.0786 90.2206 19.2794 89.7271 21.3135 88.695L22.2409 88.2314L23.0186 88.6053C24.0507 89.1288 24.9481 89.1138 25.9801 88.5754C27.4609 87.8126 27.9694 86.0476 27.0869 84.7464L26.713 84.193L27.2963 83.1161C28.0442 81.74 28.4929 80.2593 28.6125 78.8085L28.7023 77.6867L29.7792 78.2551C31.6339 79.2273 32.0078 79.2721 37.6466 79.2721H42.6871L42.7469 80.6781C42.8067 82.2187 43.046 82.7571 43.7341 83.0263C43.9584 83.1161 45.3644 83.1609 47.1742 83.131L50.2254 83.0862L50.6591 82.5926L51.0929 82.114V78.9281V75.7273L52.8578 75.3983C57.7936 74.4261 62.4453 72.1676 66.4537 68.7723C71.1353 64.8087 74.6502 59.0054 76.2805 52.5589C78.7484 42.7621 76.43 31.9931 70.193 24.2304C68.6674 22.3458 65.7657 19.489 64.1055 18.2626C58.9304 14.4186 53.0523 12.2499 46.7853 11.8759C45.3195 11.7862 45.1101 11.7413 45.1998 11.5319C45.2447 11.3973 45.5289 10.3802 45.8131 9.27341C46.2917 7.47857 46.3515 7.02986 46.3665 5.23502C46.3814 3.48506 46.3366 3.14105 46.0823 2.61755C45.6934 1.85474 45.1998 1.57056 44.467 1.70517C43.8687 1.82483 41.9542 3.0513 40.6529 4.15812C39.8452 4.84614 39.8452 4.84614 39.6059 4.53205C37.6017 2.03423 35.0889 7.71199e-05 33.9671 7.71199e-05C33.8026 7.71199e-05 33.4586 0.13469 33.2043 0.28426ZM36.5248 5.57903L38.0055 7.13456L38.0205 8.76487C38.0205 10.3503 38.4243 13.0874 38.6936 13.3716C39.0077 13.7156 40.1593 10.5298 40.3987 8.64522C40.4884 7.98711 40.5781 7.86745 41.5952 7.01491C42.1935 6.50637 42.8965 5.95296 43.1507 5.80339L43.6144 5.50425V5.95296C43.6144 6.20723 43.1807 8.15164 42.6422 10.2755C41.5952 14.4635 40.7726 18.4121 40.7726 19.2348C40.7726 19.5788 40.8922 19.8779 41.1166 20.1023C41.4456 20.4313 41.5952 20.4463 44.5118 20.536C48.0566 20.6407 49.7169 20.895 52.1548 21.6877C55.939 22.9291 58.6761 24.6193 61.5778 27.506C64.2551 30.1982 65.9003 32.726 67.1567 36.0913C69.1161 41.3412 69.2507 46.9052 67.5306 52.1252C66.0948 56.5076 62.9089 60.875 59.2594 63.4476C57.3748 64.7788 53.9497 66.3194 52.2147 66.6185C51.8856 66.6783 51.4967 66.7531 51.3621 66.798C51.1079 66.8728 51.0929 66.2895 51.0929 56.0589C51.0929 47.4586 51.048 45.0954 50.8835 44.4971C50.6292 43.5548 49.4626 40.4737 47.8323 36.4204C46.0823 32.0529 46.1272 32.2025 46.1122 30.961C46.0973 29.929 46.1421 29.7794 46.6058 29.0316C47.0396 28.3735 47.1293 28.0594 47.1742 27.2368C47.219 26.3842 47.1592 26.1299 46.8002 25.427C46.531 24.8885 46.1571 24.4548 45.7383 24.1556L45.0802 23.7069L39.0824 23.662C32.2321 23.6172 32.2321 23.6172 31.2151 24.7689C30.1681 25.9654 30.0634 27.491 30.9159 29.0765C31.2898 29.8094 31.3497 30.0636 31.3497 31.1704V32.4268L30.0484 35.0294L28.7322 37.6169L28.6873 29.241C28.6724 24.6342 28.6873 20.7753 28.7322 20.6706C28.7771 20.536 29.7493 20.4912 32.8902 20.4912H36.9885L37.3923 20.1172C37.7064 19.833 37.7812 19.6236 37.7812 19.0852C37.7812 18.2775 37.1979 15.5105 35.9863 10.47C34.8646 5.80339 34.5654 4.03846 34.9244 4.03846C34.9992 4.03846 35.7171 4.72649 36.5248 5.57903ZM44.5268 26.3094C44.6764 26.5039 44.811 26.788 44.811 26.9376C44.811 27.2218 44.6464 27.2368 38.8431 27.1919C35.5526 27.162 32.8155 27.0872 32.7556 27.0274C32.5014 26.7731 33.0697 26.1 33.5932 26.0103C33.8774 25.9505 36.3902 25.9205 39.1722 25.9355L44.2426 25.9505L44.5268 26.3094ZM43.5546 30.3179C43.5097 30.632 43.4648 31.0358 43.4648 31.2153V31.5593H39.6059C35.0141 31.5593 35.2834 31.4546 35.074 33.3841C34.9543 34.4311 34.8496 34.7452 34.4159 35.3883C34.1317 35.8071 33.8924 36.196 33.8924 36.2558C33.8924 36.4503 35.4628 37.0934 36.5547 37.3327C38.2299 37.7067 40.9221 37.572 42.4777 37.0336C43.405 36.7195 43.6892 36.6746 43.7789 36.8242C43.8537 36.9289 44.108 37.6169 44.3772 38.3648C46.2319 43.7044 46.5759 44.7065 46.5161 44.7514C46.4861 44.7963 43.2255 44.7813 39.2769 44.7514C32.7855 44.6916 32.0676 44.7065 31.7236 44.9309L31.3497 45.1702V49.2834C31.3497 52.7983 31.3796 53.4115 31.589 53.6059C31.7984 53.8153 32.6808 53.8452 39.1423 53.8452H46.4562V56.1636V58.4819H45.0652C43.7041 58.4819 43.6593 58.4969 43.2255 58.9456L42.7918 59.3943L42.7469 67.6954L42.717 75.9965L37.2876 75.9517C32.0078 75.9068 31.8582 75.8918 31.1253 75.5628C30.1531 75.1141 29.4501 74.441 29.0164 73.5137L28.6574 72.7658V58.9605C28.6574 45.5591 28.6724 45.1403 28.9566 44.2728C29.1211 43.7792 30.1681 41.3412 31.2898 38.8583C33.8176 33.2196 33.9223 32.9204 33.9372 31.1405L33.9522 29.7645H38.7983H43.6593L43.5546 30.3179ZM43.2704 48.715C43.5097 49.3133 43.4648 50.3752 43.1657 50.5547C43.076 50.6145 41.5354 50.6295 39.7555 50.5996C36.9436 50.5547 36.4799 50.5098 36.3304 50.3004C36.106 50.0013 36.0761 49.074 36.2855 48.5505L36.435 48.1616H39.7256H43.0311L43.2704 48.715Z" fill="#4FBF8B"/>
<path d="M55.2061 30.6469C54.9668 30.7964 54.204 31.4994 53.5309 32.1874C52.1848 33.5784 52.0502 33.9374 52.5288 34.8647C52.798 35.3882 53.6207 35.7921 54.1442 35.6575C54.3386 35.6126 55.1762 34.8797 56.0138 34.0421C57.6291 32.3819 57.7488 32.1276 57.3001 31.2601C57.0608 30.7964 56.3877 30.3627 55.924 30.3627C55.7745 30.3627 55.4604 30.4824 55.2061 30.6469Z" fill="#4FBF8B"/>
<path d="M59.5586 38.0806C57.689 38.7237 57.4198 38.9032 57.3001 39.5464C57.1805 40.1446 57.2702 40.5186 57.689 41.0421C58.1078 41.5656 58.7061 41.5506 60.4561 40.9673C62.4304 40.3241 62.9838 39.5912 62.3855 38.4395C62.1761 38.0357 61.4731 37.5272 61.159 37.5421C61.0992 37.5571 60.3663 37.7814 59.5586 38.0806Z" fill="#4FBF8B"/>
<path d="M58.7061 45.1553C58.377 45.4993 58.2723 45.7386 58.2723 46.2022C58.2723 47.1595 58.7061 47.5185 60.1868 47.8026C60.8749 47.9223 61.6377 47.9821 61.8919 47.9373C62.4304 47.8176 62.909 47.0997 62.909 46.4116C62.909 45.6339 62.4005 45.2001 61.1441 44.9459C59.5586 44.6168 59.2146 44.6467 58.7061 45.1553Z" fill="#4FBF8B"/>
<path d="M56.7169 54.6977C56.2681 55.1464 56.1036 55.625 56.2382 56.1485C56.4028 56.8066 58.5715 58.6313 59.1997 58.6313C59.7382 58.6313 60.3813 58.1677 60.6057 57.6292C60.9347 56.8664 60.7104 56.4327 59.3493 55.266C58.392 54.4434 58.1378 54.2938 57.6741 54.2938C57.2703 54.2938 57.001 54.3985 56.7169 54.6977Z" fill="#4FBF8B"/>
<path d="M34.8497 59.14C33.3689 59.7981 33.2493 62.1763 34.6552 62.9092C35.6125 63.4028 36.8838 63.0139 37.4821 62.0417C38.23 60.8002 37.3774 59.155 35.8967 58.9904C35.5676 58.9605 35.104 59.0204 34.8497 59.14Z" fill="#4FBF8B"/>
<path d="M20.0273 3.21589C19.1 3.61973 18.756 5.22013 19.4141 6.05772C20.7602 7.77777 23.5273 6.08763 22.585 4.11331C22.1213 3.11119 21.0893 2.75222 20.0273 3.21589Z" fill="#4FBF8B"/>
<path d="M7.82238 5.23517C6.96983 6.23728 6.23694 9.13894 6.22198 11.4573V12.953L5.14508 12.7735C2.8417 12.3697 0.583195 12.579 0.134485 13.2521C-0.508665 14.2393 1.2413 17.799 3.54468 20.1473C6.31172 22.9742 10.4847 24.5147 13.2069 23.707C14.2539 23.393 15.3457 22.2114 15.7795 20.9101C17.2602 16.438 15.4654 10.3505 11.5467 6.52147C9.72192 4.74159 8.57023 4.33775 7.82238 5.23517ZM10.2903 10.1111C12.3992 12.3697 13.7304 16.2884 13.4163 19.3695L13.3266 20.2669L12.9078 19.205C12.3693 17.814 11.771 16.9016 10.6792 15.7649C9.88644 14.9273 9.75183 14.7029 9.57235 13.8803C9.28816 12.5192 9.30312 9.42312 9.60226 9.42312C9.63218 9.42312 9.94627 9.73722 10.2903 10.1111ZM6.65573 16.5576C7.97195 17.1858 9.48261 18.6217 10.2155 19.9379C10.8138 21.0148 10.6792 21.0297 8.83945 20.1323C7.92708 19.6836 7.14931 19.1452 6.41642 18.4871C5.44422 17.5896 4.27757 16.1986 4.27757 15.9294C4.27757 15.7051 5.60874 16.0491 6.65573 16.5576Z" fill="#4FBF8B"/>
<path d="M0.702891 25.2625C0.433665 25.5317 0.388794 25.7561 0.388794 26.6535C0.403751 29.1513 1.31613 31.8735 2.93148 34.2367C6.14724 38.9332 11.8458 41.1767 14.6428 38.8734C15.271 38.3499 16.1235 36.6896 16.3778 35.4781C16.5872 34.476 16.5872 32.038 16.3778 30.8714C16.0338 28.8821 15.0317 26.5189 14.3736 26.0851C13.88 25.7561 12.8928 25.8907 12.4292 26.3244C11.8309 26.8928 11.8309 27.3266 12.504 29.3308C13.2817 31.6641 13.536 33.5337 13.2817 35.0144C13.177 35.5978 13.0125 36.211 12.9228 36.3905C12.7582 36.6896 12.7283 36.6597 12.6386 36.0166C12.2347 33.3393 10.4997 30.1983 8.28608 28.209C6.43142 26.5189 3.7242 25.1578 1.94432 25.0082C1.1516 24.9484 0.987074 24.9783 0.702891 25.2625ZM5.23486 29.8393C6.62586 30.8714 7.53824 31.8585 8.46557 33.3093C9.22838 34.5059 9.9164 35.9867 9.76683 36.1512C9.72196 36.196 9.42282 36.0764 9.10872 35.882C6.77543 34.476 4.93572 32.1726 4.23274 29.7945C4.09813 29.3757 4.02334 29.0167 4.06821 29.0167C4.11308 29.0167 4.63658 29.3906 5.23486 29.8393Z" fill="#4FBF8B"/>
<path d="M1.31617 41.1316C0.164485 41.4009 -0.0149985 42.0739 0.628152 43.8239C1.7948 47.0696 4.80115 50.405 7.98699 51.9755C10.3502 53.1421 12.9527 53.4263 14.3886 52.6784C15.5253 52.0951 16.4676 50.6892 16.9462 48.8644C17.2454 47.7426 17.2753 45.0653 16.9911 43.6295C16.7219 42.1786 15.9591 41.5953 14.8523 42.0141C13.9847 42.3432 13.9698 42.4329 14.0745 45.3046L14.1792 47.9371L13.5959 46.9649C12.7882 45.5888 10.7391 43.5995 9.31816 42.7919C6.76052 41.356 3.36528 40.6381 1.31617 41.1316ZM6.46138 44.8858C8.21135 45.544 10.2305 47.1892 11.2925 48.8195C11.9057 49.7618 12.0403 50.1058 11.7562 50.1058C11.4271 50.1058 9.55748 49.3131 8.77971 48.8494C7.26906 47.9221 5.56396 46.1572 4.65158 44.5867C4.50201 44.3175 5.30969 44.4521 6.46138 44.8858Z" fill="#4FBF8B"/>
<path d="M13.2368 59.0204C11.8608 59.5888 11.8009 61.7875 13.162 62.4306C13.4462 62.5652 13.8201 62.6699 13.9846 62.6699C14.5829 62.6699 15.3308 62.2511 15.6449 61.7426C16.2432 60.7554 15.8393 59.4243 14.8222 58.9905C14.194 58.7362 13.9248 58.7362 13.2368 59.0204Z" fill="#4FBF8B"/>
</svg>
