<svg width="223" height="81" viewBox="0 0 223 81" fill="none" xmlns="http://www.w3.org/2000/svg">
<path d="M25.4566 12.2179C24.9406 12.539 24.7113 13.2614 24.6425 14.9127C24.5622 16.5525 24.7227 17.7336 25.2502 19.6027C25.4681 20.348 25.6401 20.9787 25.6401 21.0017C25.6401 21.0361 23.4728 21.0705 20.8239 21.0819L16.0078 21.1163L15.6982 21.4374L15.3771 21.747L15.3198 46.6075C15.2739 65.1381 15.2281 71.5482 15.1249 71.8234C14.8611 72.5687 14.3451 73.3829 13.9094 73.7613C12.6939 74.7933 10.7674 74.736 9.6551 73.6352C8.90974 72.8898 8.72627 72.4311 8.72627 71.3418C8.72627 70.4703 8.74921 70.39 9.17348 69.6905C9.97617 68.4062 9.8615 67.1219 8.85241 66.0325C7.05209 64.0717 3.86427 64.7597 2.5685 67.3971C2.00661 68.5553 1.85754 69.358 1.85754 71.1698C1.86901 73.0733 2.07542 74.0824 2.76344 75.4928C4.26561 78.543 6.98329 80.4695 10.4463 80.9282C12.3269 81.169 14.7808 80.7906 16.3404 79.9993L17.0513 79.6439L17.6476 79.9305C18.4388 80.3319 19.1268 80.3204 19.9181 79.9076C21.0533 79.3228 21.4432 77.9697 20.7666 76.9721L20.4799 76.5478L20.9272 75.7222C21.5005 74.6672 21.8445 73.532 21.9362 72.4197L22.005 71.5596L22.8307 71.9954C24.2526 72.7407 24.5393 72.7751 28.8623 72.7751H32.7267L32.7726 73.853C32.8184 75.0341 33.0019 75.4469 33.5294 75.6534C33.7014 75.7222 34.7793 75.7566 36.1668 75.7336L38.5061 75.6992L38.8386 75.3208L39.1711 74.9539V72.5114V70.0575L40.5242 69.8052C44.3083 69.0598 47.8746 67.3283 50.9477 64.7253C54.5369 61.6866 57.2316 57.2374 58.4816 52.2951C60.3736 44.7842 58.5962 36.528 53.8145 30.5766C52.6449 29.1318 50.4203 26.9416 49.1474 26.0013C45.1798 23.0543 40.6733 21.3915 35.8686 21.1049C34.7449 21.0361 34.5843 21.0017 34.6531 20.8411C34.6875 20.7379 34.9054 19.9582 35.1233 19.1096C35.4902 17.7336 35.5361 17.3896 35.5476 16.0135C35.559 14.6719 35.5246 14.4081 35.3297 14.0068C35.0316 13.422 34.6531 13.2041 34.0913 13.3073C33.6326 13.399 32.1648 14.3393 31.1672 15.1879C30.548 15.7154 30.548 15.7154 30.3645 15.4746C28.8279 13.5596 26.9015 12.0001 26.0414 12.0001C25.9153 12.0001 25.6516 12.1033 25.4566 12.2179ZM28.0023 16.2773L29.1375 17.4698L29.149 18.7197C29.149 19.9352 29.4586 22.0337 29.665 22.2516C29.9058 22.5153 30.7888 20.0728 30.9722 18.628C31.041 18.1234 31.1098 18.0317 31.8896 17.3781C32.3483 16.9882 32.8872 16.5639 33.0822 16.4493L33.4376 16.2199V16.5639C33.4376 16.7589 33.1051 18.2496 32.6923 19.8779C31.8896 23.0887 31.2589 26.1159 31.2589 26.7466C31.2589 27.0104 31.3506 27.2397 31.5227 27.4117C31.7749 27.664 31.8896 27.6755 34.1257 27.7443C36.8433 27.8245 38.1162 28.0195 39.9853 28.6272C42.8864 29.579 44.9849 30.8747 47.2095 33.0879C49.2621 35.1519 50.5235 37.0899 51.4867 39.6699C52.9889 43.6948 53.0921 47.9606 51.7734 51.9625C50.6725 55.3224 48.2301 58.6707 45.4321 60.6431C43.9873 61.6636 41.3613 62.8447 40.0312 63.0741C39.7789 63.1199 39.4807 63.1773 39.3775 63.2117C39.1826 63.269 39.1711 62.8218 39.1711 54.9784C39.1711 48.3848 39.1367 46.5731 39.0106 46.1144C38.8157 45.392 37.9212 43.0298 36.6713 39.9222C35.3297 36.5738 35.3641 36.6885 35.3526 35.7367C35.3412 34.9455 35.3756 34.8309 35.731 34.2575C36.0636 33.753 36.1324 33.5122 36.1668 32.8815C36.2012 32.2278 36.1553 32.0329 35.8801 31.494C35.6737 31.0812 35.387 30.7486 35.066 30.5193L34.5614 30.1753L29.9631 30.1409C24.7113 30.1065 24.7113 30.1065 23.9315 30.9894C23.1288 31.9068 23.0485 33.0764 23.7022 34.2919C23.9888 34.8538 24.0347 35.0487 24.0347 35.8973V36.8605L23.0371 38.8558L22.028 40.8396L21.9936 34.418C21.9821 30.8862 21.9936 27.9277 22.028 27.8475C22.0624 27.7443 22.8077 27.7099 25.2158 27.7099H28.3578L28.6674 27.4232C28.9082 27.2053 28.9655 27.0448 28.9655 26.632C28.9655 26.0127 28.5183 23.8913 27.5895 20.027C26.7294 16.4493 26.5001 15.0962 26.7753 15.0962C26.8327 15.0962 27.3831 15.6236 28.0023 16.2773ZM34.1371 32.1705C34.2518 32.3196 34.355 32.5375 34.355 32.6521C34.355 32.87 34.2289 32.8815 29.7797 32.8471C27.2569 32.8241 25.1585 32.7668 25.1126 32.7209C24.9177 32.526 25.3534 32.01 25.7548 31.9412C25.9726 31.8953 27.8991 31.8724 30.0319 31.8838L33.9193 31.8953L34.1371 32.1705ZM33.3918 35.2437C33.3574 35.4845 33.323 35.7941 33.323 35.9317V36.1954H30.3645C26.8441 36.1954 27.0505 36.1152 26.89 37.5944C26.7983 38.3971 26.718 38.6379 26.3854 39.131C26.1676 39.4521 25.9841 39.7502 25.9841 39.7961C25.9841 39.9451 27.1881 40.4382 28.0252 40.6217C29.3095 40.9084 31.3736 40.8052 32.5661 40.3923C33.2771 40.1515 33.495 40.1171 33.5638 40.2318C33.6211 40.3121 33.8161 40.8396 34.0225 41.4129C35.4444 45.5066 35.7081 46.2749 35.6622 46.3093C35.6393 46.3437 33.1395 46.3323 30.1122 46.3093C25.1355 46.2634 24.5851 46.2749 24.3214 46.4469L24.0347 46.6304V49.7838C24.0347 52.4786 24.0576 52.9487 24.2182 53.0978C24.3787 53.2583 25.0553 53.2812 30.009 53.2812H35.6164V55.0586V56.836H34.5499C33.5064 56.836 33.472 56.8475 33.1395 57.1915L32.807 57.5355L32.7726 63.8997L32.7496 70.2639L28.5871 70.2295C24.5393 70.1951 24.4246 70.1836 23.8627 69.9313C23.1173 69.5873 22.5784 69.0713 22.2459 68.3603L21.9706 67.787V57.203C21.9706 46.9285 21.9821 46.6075 22.2 45.9424C22.3261 45.564 23.1288 43.6948 23.9888 41.7913C25.9268 37.4683 26.007 37.2389 26.0185 35.8744L26.03 34.8194H29.7453H33.472L33.3918 35.2437ZM33.1739 49.3481C33.3574 49.8067 33.323 50.6209 33.0936 50.7585C33.0248 50.8044 31.8437 50.8158 30.4792 50.7929C28.3234 50.7585 27.9679 50.7241 27.8532 50.5636C27.6812 50.3342 27.6583 49.6233 27.8188 49.2219L27.9335 48.9238H30.4562H32.9904L33.1739 49.3481Z" fill="#4FBF8B"/>
<path d="M42.3246 35.496C42.1411 35.6106 41.5563 36.1496 41.0403 36.6771C40.0082 37.7435 39.905 38.0187 40.272 38.7296C40.4784 39.131 41.1091 39.4406 41.5104 39.3374C41.6595 39.303 42.3016 38.7411 42.9438 38.099C44.1822 36.8261 44.274 36.6312 43.93 35.9661C43.7465 35.6106 43.2305 35.2781 42.875 35.2781C42.7603 35.2781 42.5195 35.3698 42.3246 35.496Z" fill="#4FBF8B"/>
<path d="M45.6615 41.1951C44.2281 41.6882 44.0217 41.8258 43.93 42.3189C43.8382 42.7775 43.907 43.0642 44.2281 43.4656C44.5492 43.8669 45.0079 43.8554 46.3495 43.4082C47.8632 42.9151 48.2874 42.3533 47.8288 41.4703C47.6682 41.1607 47.1293 40.7708 46.8885 40.7823C46.8426 40.7937 46.2807 40.9657 45.6615 41.1951Z" fill="#4FBF8B"/>
<path d="M45.0078 46.6189C44.7556 46.8826 44.6753 47.0661 44.6753 47.4216C44.6753 48.1555 45.0078 48.4307 46.1431 48.6486C46.6705 48.7403 47.2554 48.7862 47.4503 48.7518C47.8631 48.66 48.2301 48.1096 48.2301 47.5821C48.2301 46.9858 47.8402 46.6533 46.877 46.4584C45.6615 46.2061 45.3977 46.229 45.0078 46.6189Z" fill="#4FBF8B"/>
<path d="M43.4828 53.9349C43.1388 54.2789 43.0127 54.6458 43.1159 55.0472C43.242 55.5517 44.9047 56.9507 45.3864 56.9507C45.7992 56.9507 46.2923 56.5952 46.4643 56.1824C46.7165 55.5976 46.5445 55.265 45.501 54.3706C44.7671 53.7399 44.5722 53.6253 44.2167 53.6253C43.9071 53.6253 43.7007 53.7055 43.4828 53.9349Z" fill="#4FBF8B"/>
<path d="M26.7179 57.3405C25.5827 57.845 25.491 59.6683 26.5689 60.2301C27.3028 60.6085 28.2775 60.3104 28.7361 59.5651C29.3095 58.6133 28.6559 57.3519 27.5206 57.2258C27.2684 57.2029 26.9129 57.2487 26.7179 57.3405Z" fill="#4FBF8B"/>
<path d="M15.3543 14.4656C14.6434 14.7752 14.3796 16.0022 14.8842 16.6443C15.9162 17.963 18.0376 16.6673 17.3152 15.1536C16.9597 14.3853 16.1685 14.1101 15.3543 14.4656Z" fill="#4FBF8B"/>
<path d="M5.99714 16.0137C5.34352 16.782 4.78164 19.0066 4.77017 20.784V21.9307L3.94455 21.7931C2.17863 21.4835 0.447115 21.644 0.103105 22.16C-0.389976 22.9169 0.951663 25.646 2.71758 27.4463C4.83897 29.6136 8.03826 30.7947 10.1253 30.1755C10.9279 29.9347 11.765 29.0288 12.0976 28.0311C13.2328 24.6025 11.8568 19.9354 8.85242 16.9999C7.45345 15.6353 6.57049 15.3257 5.99714 16.0137ZM7.88919 19.752C9.50604 21.4835 10.5266 24.4878 10.2858 26.85L10.217 27.5381L9.89592 26.7239C9.48311 25.6575 9.02443 24.958 8.18734 24.0865C7.57958 23.4443 7.47638 23.2723 7.33878 22.6416C7.1209 21.5982 7.13237 19.2245 7.36171 19.2245C7.38465 19.2245 7.62545 19.4653 7.88919 19.752ZM5.10271 24.6942C6.11181 25.1759 7.26998 26.2767 7.83186 27.2858C8.29054 28.1114 8.18734 28.1229 6.77689 27.4349C6.07741 27.0908 5.48113 26.678 4.91924 26.1735C4.17389 25.4855 3.27946 24.419 3.27946 24.2126C3.27946 24.0406 4.30002 24.3044 5.10271 24.6942Z" fill="#4FBF8B"/>
<path d="M0.538903 31.3679C0.332497 31.5743 0.298096 31.7463 0.298096 32.4343C0.309563 34.3493 1.00905 36.4363 2.24748 38.2481C4.71289 41.8487 9.08181 43.5687 11.2261 41.8028C11.7078 41.4015 12.3614 40.1286 12.5563 39.1998C12.7168 38.4315 12.7168 36.5624 12.5563 35.668C12.2926 34.1429 11.5243 32.3311 11.0197 31.9986C10.6413 31.7463 9.8845 31.8495 9.52902 32.182C9.07034 32.6178 9.07034 32.9503 9.58636 34.4869C10.1826 36.2757 10.3776 37.7091 10.1826 38.8443C10.1024 39.2916 9.97624 39.7617 9.90743 39.8993C9.7813 40.1286 9.75836 40.1057 9.68956 39.6126C9.37995 37.56 8.04978 35.152 6.35267 33.6269C4.93076 32.3311 2.85523 31.2876 1.49066 31.1729C0.882912 31.1271 0.756775 31.15 0.538903 31.3679ZM4.0134 34.8768C5.07983 35.668 5.77932 36.4248 6.49027 37.5371C7.07509 38.4545 7.60257 39.5897 7.4879 39.7158C7.4535 39.7502 7.22416 39.6585 6.98335 39.5094C5.1945 38.4315 3.78406 36.6656 3.24511 34.8424C3.14191 34.5213 3.08457 34.2461 3.11898 34.2461C3.15338 34.2461 3.55472 34.5328 4.0134 34.8768Z" fill="#4FBF8B"/>
<path d="M1.00907 43.5343C0.126114 43.7407 -0.0114901 44.2567 0.481591 45.5984C1.37602 48.0867 3.68088 50.6438 6.12335 51.8479C7.93514 52.7423 9.93039 52.9602 11.0312 52.3868C11.9027 51.9396 12.6251 50.8617 12.9921 49.4627C13.2214 48.6027 13.2444 46.5501 13.0265 45.4493C12.8201 44.337 12.2353 43.8898 11.3867 44.2109C10.7216 44.4631 10.7101 44.5319 10.7904 46.7336L10.8707 48.7518L10.4235 48.0064C9.80426 46.9515 8.23328 45.4264 7.14391 44.8071C5.18306 43.7063 2.58005 43.1559 1.00907 43.5343ZM4.95372 46.4125C6.29536 46.9171 7.8434 48.1784 8.65756 49.4283C9.1277 50.1508 9.23091 50.4145 9.01303 50.4145C8.76076 50.4145 7.32739 49.8067 6.7311 49.4513C5.57294 48.7403 4.2657 47.3872 3.56621 46.1832C3.45154 45.9768 4.07076 46.08 4.95372 46.4125Z" fill="#4FBF8B"/>
<path d="M10.1482 57.2489C9.09326 57.6847 9.04739 59.3703 10.0909 59.8634C10.3088 59.9666 10.5954 60.0469 10.7216 60.0469C11.1802 60.0469 11.7536 59.7258 11.9944 59.3359C12.4531 58.5791 12.1435 57.5585 11.3637 57.226C10.8821 57.0311 10.6757 57.0311 10.1482 57.2489Z" fill="#4FBF8B"/>
<path d="M72.112 61C69.5947 61 67.5253 60.2107 65.904 58.632C64.3253 57.0107 63.536 54.856 63.536 52.168C63.536 49.4373 64.7733 47.0907 67.248 45.128C69.7227 43.1227 72.7307 42.12 76.272 42.12H80.624V41.032C80.624 38.9413 80.1973 37.512 79.344 36.744C78.4907 35.976 76.8907 35.592 74.544 35.592C73.5627 35.592 72.3893 35.8053 71.024 36.232C69.7013 36.616 68.208 37.2347 66.544 38.088L64.688 33.032C66.5227 31.752 68.7413 30.6 71.344 29.576C73.9893 28.552 76.1653 28.04 77.872 28.04C84.5707 28.04 87.92 31.2827 87.92 37.768V50.312C87.92 52.7013 88.6667 55.368 90.16 58.312L83.376 61.192C82.3093 59.144 81.52 57.3093 81.008 55.688C78.6613 59.2293 75.696 61 72.112 61ZM74.8 54.472C76.5067 54.472 78.448 53.5973 80.624 51.848V47.56C78.3627 47.048 76.528 46.792 75.12 46.792C72.432 46.792 71.088 47.9867 71.088 50.376C71.088 51.6133 71.4293 52.616 72.112 53.384C72.7947 54.1093 73.6907 54.472 74.8 54.472ZM112.992 44.808C112.992 41.864 112.736 39.9013 112.224 38.92C111.712 37.9387 110.517 37.448 108.64 37.448C106.763 37.448 104.629 38.1947 102.24 39.688V44.36L102.944 59.4L94.368 61L95.136 45.448C94.9653 39.7307 94.496 34.6107 93.728 30.088L101.472 28.424C101.771 30.8987 101.984 33.3093 102.112 35.656C102.752 34.8027 103.477 33.9707 104.288 33.16C105.099 32.3067 106.379 31.368 108.128 30.344C109.877 29.2773 111.712 28.744 113.632 28.744C115.595 28.744 117.237 29.512 118.56 31.048C119.883 32.5413 120.544 34.5893 120.544 37.192L120.16 44.36L120.864 59.72L112.224 61.32L112.992 44.808Z" fill="#2B3441"/>
<path d="M129.148 30.024V23.048L137.788 21.384L136.956 30.024H144.7L143.996 35.272H136.7L136.38 48.648C136.38 50.6533 136.572 51.9973 136.956 52.68C137.34 53.32 138.044 53.64 139.068 53.64C140.092 53.64 141.457 53.4053 143.164 52.936L143.548 57.48C140.732 59.8267 138.257 61 136.124 61C133.991 61 132.241 60.232 130.876 58.696C129.511 57.1173 128.828 55.0693 128.828 52.552L129.212 45.384L129.148 35.272H124.732L125.436 30.024H129.148ZM147.418 30.088L155.162 28.424C155.546 31.7093 155.802 34.824 155.93 37.768C159.813 31.752 163.461 28.744 166.874 28.744L166.17 38.728C163.695 38.728 161.733 38.9627 160.282 39.432C158.874 39.8587 157.423 40.7333 155.93 42.056V44.36L156.634 59.4L148.058 61L148.826 45.448C148.655 39.7307 148.186 34.6107 147.418 30.088ZM181.174 54.472C182.412 54.472 183.713 54.152 185.078 53.512C186.444 52.872 187.51 52.232 188.278 51.592L189.43 50.632L192.374 54.216C191.948 54.9413 191.286 55.7733 190.39 56.712C189.494 57.6507 188.577 58.4613 187.638 59.144C186.742 59.784 185.526 60.3813 183.99 60.936C182.497 61.448 180.94 61.704 179.318 61.704C175.862 61.704 173.046 60.4027 170.87 57.8C168.694 55.1547 167.606 51.7627 167.606 47.624C167.606 42.4187 169.121 37.8533 172.15 33.928C175.18 30.0027 178.721 28.04 182.774 28.04C185.889 28.04 188.3 28.9147 190.006 30.664C191.756 32.4133 192.63 34.8667 192.63 38.024C192.63 39.9013 192.31 42.0347 191.67 44.424L190.39 45.768L174.39 47.24C175.116 52.0613 177.377 54.472 181.174 54.472ZM181.174 34.632C179.297 34.632 177.718 35.4 176.438 36.936C175.158 38.4293 174.412 40.3493 174.198 42.696L185.078 41.352C185.206 40.3707 185.27 39.56 185.27 38.92C185.27 36.0613 183.905 34.632 181.174 34.632ZM208.457 54.472C209.694 54.472 210.996 54.152 212.361 53.512C213.726 52.872 214.793 52.232 215.561 51.592L216.713 50.632L219.657 54.216C219.23 54.9413 218.569 55.7733 217.673 56.712C216.777 57.6507 215.86 58.4613 214.921 59.144C214.025 59.784 212.809 60.3813 211.273 60.936C209.78 61.448 208.222 61.704 206.601 61.704C203.145 61.704 200.329 60.4027 198.153 57.8C195.977 55.1547 194.889 51.7627 194.889 47.624C194.889 42.4187 196.404 37.8533 199.433 33.928C202.462 30.0027 206.004 28.04 210.057 28.04C213.172 28.04 215.582 28.9147 217.289 30.664C219.038 32.4133 219.913 34.8667 219.913 38.024C219.913 39.9013 219.593 42.0347 218.953 44.424L217.673 45.768L201.673 47.24C202.398 52.0613 204.66 54.472 208.457 54.472ZM208.457 34.632C206.58 34.632 205.001 35.4 203.721 36.936C202.441 38.4293 201.694 40.3493 201.481 42.696L212.361 41.352C212.489 40.3707 212.553 39.56 212.553 38.92C212.553 36.0613 211.188 34.632 208.457 34.632Z" fill="#606771"/>
</svg>
